PathFileType  4	(X/Y/Z) C:\Users\wagnerel85475\Documents\Thesis\opencap-core\Data\3375ffbc-daeb-4a43-b4f7-ac9899cd4c71\MarkerData\PreAugmentation
DataRate	CameraRate	NumFrames	NumMarkers	Units	OrigDataRate	OrigDataStartFrame	OrigNumFrames
60.0	60.0	10	20	m	60.0	118	469
Frame#	Time	Neck			RShoulder			RElbow			RWrist			LShoulder			LElbow			LWrist			midHip			RHip			RKnee			RAnkle			LHip			LKnee			LAnkle			LBigToe			LSmallToe			LHeel			RBigToe			RSmallToe			RHeel			
		X1	Y1	Z1	X2	Y2	Z2	X3	Y3	Z3	X4	Y4	Z4	X5	Y5	Z5	X6	Y6	Z6	X7	Y7	Z7	X8	Y8	Z8	X9	Y9	Z9	X10	Y10	Z10	X11	Y11	Z11	X12	Y12	Z12	X13	Y13	Z13	X14	Y14	Z14	X15	Y15	Z15	X16	Y16	Z16	X17	Y17	Z17	X18	Y18	Z18	X19	Y19	Z19	X20	Y20	Z20	

118	1.9500000	-0.9915600	1.3593400	-0.1547500	-0.9530800	1.3630600	0.0337500	-1.0218400	1.0517400	0.1100700	-0.9655100	0.7738900	0.1852300	-0.9701500	1.3455400	-0.3423700	-1.0335400	1.0385600	-0.4069500	-1.0420400	0.7284700	-0.4213200	-0.9152900	0.7965100	-0.1147300	-0.9182800	0.7987900	-0.0119200	-1.0166300	0.3224100	0.0208900	-1.1431700	-0.1942300	0.0760100	-0.9697500	0.7906500	-0.2362700	-1.0292800	0.3415900	-0.2260600	-1.0928900	-0.1931600	-0.2469900	-0.9031800	-0.2500800	-0.2904700	-0.9529700	-0.2462100	-0.3279200	-1.1730200	-0.2583500	-0.2002100	-0.9081400	-0.2648800	0.1265200	-0.9669600	-0.2449500	0.1801700	-1.1819800	-0.2623800	0.0564300
119	1.9666667	-0.9873000	1.3598700	-0.1606300	-0.9610100	1.3633600	0.0296600	-1.0208900	1.0537000	0.1097500	-0.9595700	0.7743400	0.1821700	-0.9629600	1.3453700	-0.3484900	-1.0393100	1.0386100	-0.4081300	-1.0377800	0.7273000	-0.4222100	-0.9156100	0.7958800	-0.1186400	-0.9109300	0.7996600	-0.0144300	-1.0172800	0.3206500	0.0209900	-1.1429800	-0.1925800	0.0757800	-0.9665200	0.7908400	-0.2417400	-1.0297400	0.3396300	-0.2260100	-1.0923900	-0.1924100	-0.2467900	-0.9014600	-0.2495000	-0.2899200	-0.9547000	-0.2467000	-0.3274200	-1.1712600	-0.2576700	-0.2007500	-0.9136900	-0.2663800	0.1253300	-0.9643800	-0.2430400	0.1803300	-1.1818300	-0.2623000	0.0564100
120	1.9833333	-0.9778200	1.3601400	-0.1658800	-0.9664600	1.3635500	0.0274600	-1.0164600	1.0541900	0.1080300	-0.9486000	0.7753500	0.1749700	-0.9505600	1.3438200	-0.3549600	-1.0402800	1.0381800	-0.4079500	-1.0312700	0.7285100	-0.4236900	-0.9158900	0.7947100	-0.1212200	-0.9020200	0.8002700	-0.0174100	-1.0170200	0.3164500	0.0208400	-1.1429200	-0.1908000	0.0755400	-0.9582100	0.7903200	-0.2465100	-1.0297200	0.3353100	-0.2260600	-1.0937600	-0.1921500	-0.2471200	-0.8997800	-0.2489300	-0.2893100	-0.9584000	-0.2470700	-0.3264300	-1.1673700	-0.2565600	-0.2019300	-0.9211600	-0.2683200	0.1237500	-0.9674000	-0.2433700	0.1792000	-1.1818300	-0.2622600	0.0564100
121	2.0000000	-0.9609400	1.3600200	-0.1725600	-0.9657600	1.3635600	0.0239200	-1.0092400	1.0528200	0.1055100	-0.9325500	0.7769700	0.1645100	-0.9318500	1.3401200	-0.3610900	-1.0383600	1.0368700	-0.4080800	-1.0252300	0.7300200	-0.4253100	-0.9159900	0.7940100	-0.1224700	-0.8962600	0.7994200	-0.0202500	-1.0127000	0.3122600	0.0194100	-1.1430200	-0.1912500	0.0755600	-0.9487700	0.7894300	-0.2506900	-1.0304300	0.3309000	-0.2258300	-1.0988800	-0.1945600	-0.2487500	-0.9019100	-0.2494800	-0.2898700	-0.9605300	-0.2466200	-0.3259800	-1.1650300	-0.2561300	-0.2026400	-0.9263000	-0.2695400	0.1226900	-0.9769800	-0.2458600	0.1784100	-1.1820100	-0.2623200	0.0564200
122	2.0166667	-0.9427300	1.3588500	-0.1811400	-0.9585900	1.3639200	0.0166200	-1.0039700	1.0507800	0.1038300	-0.9144700	0.7786900	0.1545900	-0.9156000	1.3367000	-0.3655800	-1.0328500	1.0351500	-0.4093500	-1.0188000	0.7301100	-0.4278500	-0.9160600	0.7940600	-0.1246200	-0.8973000	0.7973100	-0.0228000	-1.0017000	0.3096800	0.0156900	-1.1433400	-0.1944600	0.0759400	-0.9396300	0.7890000	-0.2561800	-1.0320000	0.3285200	-0.2254400	-1.1060100	-0.1978800	-0.2509900	-0.9066200	-0.2507500	-0.2913000	-0.9584300	-0.2460800	-0.3266800	-1.1670600	-0.2565800	-0.2020700	-0.9276500	-0.2697700	0.1224700	-0.9882400	-0.2489200	0.1795000	-1.1822900	-0.2624500	0.0564500
123	2.0333333	-0.9324700	1.3568800	-0.1885400	-0.9493000	1.3641100	0.0074600	-1.0042200	1.0493600	0.1031400	-0.8980000	0.7796300	0.1475400	-0.9103800	1.3347700	-0.3678500	-1.0253200	1.0341800	-0.4112800	-1.0105800	0.7289800	-0.4320800	-0.9162600	0.7942100	-0.1287800	-0.9018300	0.7959300	-0.0253700	-0.9823100	0.3099900	0.0089000	-1.1437700	-0.1977400	0.0763300	-0.9303900	0.7898100	-0.2629800	-1.0339500	0.3284100	-0.2256700	-1.1093000	-0.1988000	-0.2519400	-0.9068500	-0.2505400	-0.2914200	-0.9548600	-0.2464900	-0.3276100	-1.1707600	-0.2556800	-0.2011000	-0.9271800	-0.2700600	0.1225600	-0.9932200	-0.2503300	0.1806300	-1.1824700	-0.2626000	0.0564900
124	2.0500000	-0.9294300	1.3550300	-0.1924700	-0.9411200	1.3643500	-0.0003500	-1.0088900	1.0489100	0.1018100	-0.8868800	0.7791300	0.1435400	-0.9152000	1.3337400	-0.3693400	-1.0215600	1.0339000	-0.4131200	-1.0013100	0.7279300	-0.4366200	-0.9168300	0.7943700	-0.1348500	-0.9021500	0.7963400	-0.0281400	-0.9552700	0.3130700	-0.0006300	-1.1436400	-0.1977300	0.0762700	-0.9207100	0.7919900	-0.2687200	-1.0373100	0.3275000	-0.2271600	-1.1069500	-0.1965900	-0.2510600	-0.9002100	-0.2489600	-0.2894000	-0.9533000	-0.2473200	-0.3279000	-1.1720900	-0.2543000	-0.2007400	-0.9266100	-0.2714200	0.1224800	-0.9895400	-0.2492400	0.1795300	-1.1824600	-0.2626000	0.0564900
125	2.0666667	-0.9260000	1.3535000	-0.1943400	-0.9322800	1.3642800	-0.0060000	-1.0125000	1.0485000	0.0987700	-0.8825400	0.7780900	0.1420600	-0.9213800	1.3322900	-0.3714700	-1.0252900	1.0337300	-0.4149500	-0.9901800	0.7273300	-0.4401500	-0.9175300	0.7943900	-0.1431000	-0.8970700	0.7973000	-0.0305200	-0.9286800	0.3155300	-0.0099300	-1.1430400	-0.1946200	0.0757900	-0.9110300	0.7948100	-0.2722100	-1.0426900	0.3223100	-0.2292100	-1.1044800	-0.1945200	-0.2501400	-0.8925100	-0.2480200	-0.2867800	-0.9534100	-0.2477100	-0.3277700	-1.1715400	-0.2543200	-0.2006400	-0.9264200	-0.2734900	0.1222700	-0.9818000	-0.2478400	0.1767900	-1.1822800	-0.2622500	0.0563800
126	2.0833333	-0.9199600	1.3528800	-0.1960300	-0.9233300	1.3641900	-0.0104300	-1.0100600	1.0475200	0.0948300	-0.8823700	0.7780700	0.1419200	-0.9206500	1.3300900	-0.3741100	-1.0331500	1.0336600	-0.4168200	-0.9735500	0.7266200	-0.4434100	-0.9165900	0.7947000	-0.1531400	-0.8922000	0.7975700	-0.0318300	-0.9126500	0.3156600	-0.0155200	-1.1429700	-0.1912500	0.0754000	-0.9029800	0.7967500	-0.2742700	-1.0456900	0.3132400	-0.2309300	-1.1064000	-0.1947300	-0.2506300	-0.8888700	-0.2487000	-0.2851500	-0.9537200	-0.2477100	-0.3276300	-1.1710700	-0.2561700	-0.2004300	-0.9267500	-0.2746500	0.1222600	-0.9754900	-0.2473800	0.1743300	-1.1820200	-0.2615700	0.0562100
127	2.1000000	-0.9151000	1.3530300	-0.1972700	-0.9183900	1.3641200	-0.0148400	-1.0024300	1.0463100	0.0912600	-0.8829000	0.7792400	0.1419500	-0.9139400	1.3285500	-0.3764600	-1.0376600	1.0335800	-0.4184000	-0.9524100	0.7275900	-0.4477400	-0.9117600	0.7953100	-0.1632500	-0.8902700	0.7980500	-0.0329800	-0.9059000	0.3142000	-0.0178700	-1.1432200	-0.1891600	0.0753300	-0.8983900	0.7968200	-0.2762600	-1.0425500	0.3064200	-0.2325800	-1.1100900	-0.1959300	-0.2517000	-0.8873400	-0.2496800	-0.2843400	-0.9537400	-0.2476100	-0.3275900	-1.1728600	-0.2580400	-0.2005800	-0.9270800	-0.2738100	0.1224700	-0.9702200	-0.2470400	0.1723200	-1.1818200	-0.2605400	0.0561300
